<?xml version="1.0" encoding="utf-8"?>
<!DOCTYPE svg PUBLIC "-//W3C//DTD SVG 1.0//EN" "http://www.w3.org/TR/2001/REC-SVG-20010904/DTD/svg10.dtd">
<svg version="1.0" xmlns="http://www.w3.org/2000/svg" width="677px" height="378px" viewBox="0 0 677 378" preserveAspectRatio="xMidYMid meet">
 <g fill="#ffffff">
  <path d="M0 188.93 l0 -188.93 338.50 0 338.50 0 0 188.93 0 188.93 -338.50 0 -338.50 0 0 -188.93z m415.74 108.54 c0 -0.10 -0.44 -1.13 -0.98 -2.31 l-0.98 -2.16 0 2.36 c0 1.97 0.15 2.31 0.98 2.31 0.54 0 0.98 -0.10 0.98 -0.20z m8.36 -2.12 c0 -1.43 -0.10 -1.43 -0.93 0.25 -0.49 0.89 -0.44 1.08 0.20 1.08 0.49 0 0.74 -0.44 0.74 -1.33z m-86 0 c-0.25 -0.49 -0.59 -1.23 -0.74 -1.62 -0.15 -0.39 -0.30 0 -0.30 0.89 -0.05 1.08 0.20 1.57 0.69 1.57 0.59 0 0.64 -0.25 0.34 -0.84z m102.19 -0.98 c-0.34 -0.49 -0.74 -0.98 -0.79 -1.08 -0.10 -0.10 -0.15 0.25 -0.15 0.84 0 0.69 0.30 1.08 0.79 1.08 0.69 0 0.74 -0.15 0.15 -0.84z m-184.60 -20.62 c2.31 -1.13 6.05 -4.62 6.05 -5.71 0 -0.20 -0.64 -0.39 -1.38 -0.39 -0.93 0 -1.72 0.44 -2.41 1.38 -1.62 2.16 -3.94 3.05 -8.17 3.05 -4.28 0 -5.90 -0.49 -7.87 -2.36 -2.07 -1.92 -2.80 -3.69 -2.80 -6.49 l0 -2.46 12.30 0 12.30 0 0 -1.92 c0 -4.97 -3.39 -10.63 -7.82 -12.94 -3.64 -1.92 -9 -1.97 -12.74 -0.10 -7.18 3.54 -10.38 13.23 -6.84 20.47 1.87 3.79 5.51 6.99 9.40 8.27 3.64 1.18 6.40 0.98 9.99 -0.79z m33.51 0.49 c0.89 -0.34 2.26 -1.13 3.05 -1.67 0.74 -0.54 2.16 -0.98 3.10 -0.98 1.62 0 1.77 0.15 1.92 1.62 0.15 1.48 0.25 1.57 2.12 1.57 l1.97 0 0 -20.91 0 -20.91 -2.07 -0.15 -2.12 -0.15 0 7.63 0 7.68 -1.92 0 c-1.18 0 -2.16 -0.30 -2.56 -0.84 -1.13 -1.28 -5.46 -3.10 -7.58 -3.10 -2.26 0 -6.15 1.67 -8.46 3.64 -2.16 1.82 -4.38 5.85 -5.07 9.30 -0.93 4.62 0.44 9.50 3.74 13.09 2.56 2.85 4.08 3.89 7.13 4.67 2.76 0.74 3.99 0.64 6.74 -0.49z m77.64 0.20 c7.08 -2.31 11.86 -9.94 10.58 -16.88 -1.03 -5.51 -3.89 -9.50 -8.56 -11.91 -3.44 -1.82 -8.86 -1.92 -12.05 -0.25 -4.72 2.51 -7.87 6.69 -8.91 11.96 -1.48 7.08 3.64 15.15 10.97 17.32 3.39 1.03 4.18 0.98 7.97 -0.25z m37.15 -0.44 c0.93 -0.44 2.02 -1.23 2.36 -1.62 0.44 -0.49 1.48 -0.79 2.80 -0.79 2.16 0 2.16 0 2.16 1.72 0 1.67 0.05 1.72 1.97 1.72 l1.97 0 0 -15.25 0 -15.25 -1.97 0 -1.97 0 0 1.97 c0 1.87 -0.10 1.97 -1.48 1.97 -0.89 0 -2.26 -0.64 -3.59 -1.62 -6.79 -5.17 -15.50 -2.36 -19.63 6.40 -4.03 8.46 0.84 19.19 9.84 21.60 2.66 0.69 4.97 0.44 7.53 -0.84z m59.98 0.74 c0.93 -0.15 2.51 -0.98 3.44 -1.72 1.28 -1.08 2.21 -1.43 3.79 -1.43 2.07 0 2.12 0 2.12 1.72 0 1.67 0.05 1.72 1.97 1.72 l1.97 0 0 -21.16 0 -21.16 -1.67 0 c-2.71 0 -2.90 0.69 -2.71 8.27 l0.20 6.74 -1.67 0.15 c-1.23 0.15 -2.21 -0.20 -3.69 -1.28 -3.05 -2.16 -5.17 -2.71 -8.36 -2.12 -3.39 0.64 -4.97 1.43 -7.33 3.74 -7.04 6.84 -6.05 18.89 1.97 24.55 2.07 1.43 6.20 2.80 7.53 2.51 0.39 -0.10 1.53 -0.34 2.46 -0.54z m-243.54 -0.98 c5.85 -2.71 8.17 -8.46 5.41 -13.38 -0.64 -1.13 -2.02 -2.66 -3.05 -3.35 -1.53 -1.08 -1.87 -1.62 -1.87 -2.95 0 -1.13 0.34 -1.87 1.18 -2.56 3.49 -2.76 4.62 -6.79 2.80 -10.33 -1.13 -2.21 -2.07 -3.05 -4.97 -4.58 -2.07 -1.08 -2.85 -1.18 -11.17 -1.33 l-9 -0.20 0 20.02 0 20.02 9.25 -0.20 c7.97 -0.15 9.50 -0.34 11.41 -1.18z m112.92 -0.05 c7.63 -3.99 8.71 -12.40 2.16 -16.73 -2.71 -1.77 -2.66 -3.49 0.25 -6.30 1.43 -1.38 2.41 -2.85 2.76 -4.13 0.49 -1.82 0.39 -2.36 -0.64 -4.67 -2.46 -5.36 -5.95 -6.69 -17.32 -6.69 l-8.12 0 0 19.98 0 19.98 9.50 -0.20 c8.36 -0.20 9.69 -0.34 11.41 -1.23z m97.17 -8.12 c0 -5.22 0.25 -10.33 0.49 -11.32 0.69 -2.41 2.76 -4.82 4.13 -4.82 0.59 0 1.28 -0.20 1.53 -0.44 0.30 -0.25 1.28 -0.54 2.21 -0.64 1.62 -0.15 1.72 -0.30 1.87 -1.97 0.15 -1.57 0 -1.87 -0.74 -1.87 -0.98 0 -5.22 2.51 -5.76 3.39 -0.20 0.30 -1.13 0.54 -2.07 0.54 -1.62 0 -1.67 -0.05 -1.67 -1.97 0 -1.77 -0.10 -1.97 -1.28 -1.97 -2.76 0 -3.05 0.54 -2.85 5.51 0.10 2.51 0.20 9.15 0.20 14.81 l0 10.18 1.97 0 1.97 0 0 -9.45z m-167.87 -54.12 c2.61 -1.57 3.64 -4.18 3.64 -9.45 0 -5.17 0.54 -7.08 2.21 -7.72 0.69 -0.25 29.77 -0.44 70.55 -0.44 l69.37 0 1.18 1.23 c1.13 1.08 1.23 1.57 1.23 5.76 0 5.26 0.49 7.43 2.07 9.15 1.97 2.07 3.74 2.66 7.92 2.66 3.30 0 4.13 -0.20 5.71 -1.23 1.03 -0.69 2.26 -2.07 2.80 -3.15 0.89 -1.77 0.93 -3.39 0.93 -34.34 0 -17.86 -0.15 -33.06 -0.34 -33.80 -0.54 -1.77 -2.61 -4.18 -4.48 -5.17 -2.02 -1.03 -7.58 -0.98 -9.54 0.05 -2.02 1.03 -3.94 3.39 -4.58 5.61 -0.25 0.98 -0.49 4.48 -0.49 7.72 l0 5.90 -45.12 0 c-44.87 0 -45.17 0 -47.43 1.03 -4.87 2.26 -7.77 6.20 -9.10 12.45 -0.34 1.77 -0.69 3.39 -0.69 3.54 0 0.15 -0.44 0.74 -0.98 1.33 l-1.03 1.08 -24.99 0 -24.99 0 -1.62 -1.08 c-0.89 -0.64 -2.12 -1.77 -2.66 -2.51 -0.98 -1.38 -1.03 -1.97 -1.18 -24.35 -0.10 -12.64 -0.05 -23.42 0.10 -23.96 0.39 -1.57 3.30 -2.36 6.99 -1.97 2.36 0.25 3.30 0.54 3.64 1.23 0.30 0.54 0.49 7.43 0.49 17.32 0 18.20 0.15 18.94 3.39 21.70 2.66 2.21 4.18 2.41 19.09 2.21 13.09 -0.15 13.92 -0.20 15.20 -1.18 2.46 -1.82 3.39 -3.54 3.35 -6 -0.05 -4.67 -3.89 -10.23 -8.81 -12.79 -2.46 -1.33 -2.51 -1.33 -15.01 -1.48 -8.95 -0.10 -12.64 -0.34 -12.89 -0.74 -0.20 -0.34 -0.39 -4.23 -0.39 -8.71 0 -9.30 -0.34 -11.02 -2.56 -13.14 -1.97 -1.92 -3.74 -2.61 -6.45 -2.61 -4.87 0.05 -7.38 1.43 -9.25 5.07 -0.93 1.77 -0.98 2.90 -0.84 24.35 0.15 22.39 0.15 22.48 1.28 24.60 1.53 2.85 4.33 5.56 7.23 6.99 l2.46 1.23 23.27 0.15 c23.08 0.15 23.32 0.15 25.54 -0.93 2.85 -1.38 4.87 -4.18 5.56 -7.72 0.98 -5.07 1.48 -6.45 2.76 -7.97 2.66 -3.15 -0.20 -2.95 48.36 -2.95 l44.28 0 1.38 1.18 c1.33 1.13 1.38 1.43 1.53 6.15 0.20 4.97 0.20 4.97 -1.28 6.45 l-1.48 1.48 -43.05 0 -43.05 0 -0.74 2.21 -0.79 2.21 42.31 0 c29.23 0 43 -0.15 44.48 -0.54 2.76 -0.69 5.81 -3.30 6.94 -5.95 0.84 -1.87 0.93 -3.64 0.98 -16.14 0.10 -16.83 0 -15.50 0.98 -16.43 1.08 -1.13 8.17 -1.13 9.25 0 0.69 0.69 0.79 4.48 0.79 34.64 0 39.07 0.64 34.93 -5.51 34.93 -5.22 0 -5.36 -0.20 -5.66 -6.49 -0.34 -6 -1.08 -7.87 -4.23 -10.43 l-1.92 -1.53 -69.47 -0.15 -69.47 -0.10 -2.21 1.13 c-1.18 0.64 -2.80 2.07 -3.59 3.20 -1.38 1.92 -1.48 2.46 -1.72 7.72 -0.25 4.33 -0.49 5.81 -1.03 6.15 -0.39 0.25 -2.41 0.49 -4.48 0.49 -5.85 0 -5.56 0.64 -5.85 -12.64 l-0.25 -11.22 -1.87 -0.15 -1.87 -0.15 0.15 11.56 c0.15 12.64 0.20 12.79 3.44 15.20 2.61 1.97 9.05 2.07 12.10 0.25z m93.53 -86.74 c1.43 -1.62 1.53 -2.02 1.53 -5.31 0 -2.16 0.25 -3.84 0.59 -4.18 0.39 -0.39 2.26 -0.59 5.07 -0.59 5.31 0 6.30 -0.49 6.05 -2.95 l-0.15 -1.72 -5.76 -0.15 -5.81 -0.15 0 -4.13 c0 -4.53 -0.54 -6.25 -2.16 -7.08 -0.74 -0.44 -4.97 -0.54 -14.42 -0.44 -12.10 0.15 -13.48 0.25 -14.27 1.03 -0.79 0.79 -0.89 2.12 -1.03 12.40 -0.10 7.92 0.05 11.86 0.39 12.60 1.13 2.12 2.90 2.36 16.04 2.41 l12.40 0 1.53 -1.72z m-56.88 0.05 c2.21 -0.93 6 -5.02 7.18 -7.72 l1.03 -2.26 3 -0.34 c1.67 -0.15 4.23 -0.30 5.71 -0.30 l2.66 0 -0.15 -2.07 -0.15 -2.12 -5.46 -0.15 -5.51 -0.15 -0.84 -2.26 c-0.49 -1.28 -1.77 -3.30 -2.90 -4.48 -5.12 -5.56 -11.81 -5.85 -17.37 -0.89 -6.30 5.71 -6.45 13.68 -0.30 19.58 3.59 3.49 9.20 4.82 13.09 3.15z m91.56 -3.89 c2.61 -2.76 14.71 -15.69 17.71 -18.94 2.71 -3 2.80 -3.15 1.97 -4.08 -0.44 -0.49 -1.13 -0.93 -1.43 -0.93 -0.34 0 -4.67 4.33 -9.64 9.59 -11.07 11.76 -10.58 11.56 -16.19 5.90 -2.02 -2.02 -3.94 -3.69 -4.28 -3.69 -0.39 0 -0.93 0.54 -1.23 1.28 -0.54 1.18 -0.30 1.48 5.07 6.89 3.05 3.05 5.81 5.61 6 5.61 0.25 0 1.13 -0.74 2.02 -1.62z"/>
  <path d="M239.21 255.15 c0.15 -1.92 0.59 -3.20 1.57 -4.43 2.07 -2.71 3.49 -3.25 8.95 -3.25 4.38 0 4.92 0.10 6.49 1.28 2.02 1.57 3.49 4.62 3.54 7.23 l0 1.82 -10.38 0 -10.38 0 0.20 -2.66z"/>
  <path d="M281.18 271.14 c-4.13 -1.92 -5.66 -4.92 -5.66 -11.17 0 -2.36 0.30 -5.17 0.59 -6.30 2.31 -7.72 14.61 -9.05 19.43 -2.12 1.23 1.77 1.38 2.46 1.53 6.94 0.10 2.76 -0.05 5.71 -0.34 6.79 -0.74 2.46 -2.80 4.77 -5.22 5.85 -2.66 1.23 -7.72 1.23 -10.33 0z"/>
  <path d="M357.44 271.14 c-4.18 -1.92 -5.66 -4.87 -5.66 -11.51 0 -3.94 0.20 -4.92 1.28 -7.13 2.16 -4.38 6.84 -6.25 12.69 -5.02 3.39 0.69 6.15 3.10 7.08 6.20 0.74 2.46 0.79 9.10 0.10 11.61 -0.69 2.46 -2.71 4.77 -5.17 5.85 -2.66 1.23 -7.72 1.23 -10.33 0z"/>
  <path d="M394.59 271 c-3.79 -1.92 -5.41 -5.41 -5.41 -11.46 0 -4.03 0.54 -6.15 2.07 -8.41 3.30 -4.77 12.10 -5.46 16.68 -1.33 2.61 2.36 3.59 5.46 3.30 10.92 -0.25 4.53 -0.89 6.30 -3.20 8.61 -1.97 2.02 -4.08 2.76 -7.92 2.76 -2.46 0 -3.89 -0.30 -5.51 -1.08z"/>
  <path d="M456.78 271.14 c-4.13 -1.87 -5.81 -5.71 -5.51 -12.45 0.25 -5.66 1.43 -8.17 4.82 -10.14 1.87 -1.13 2.80 -1.33 5.90 -1.33 6.20 0 9.64 2.71 10.87 8.51 1.08 5.26 -0.25 11.07 -3.10 13.73 -2.85 2.66 -9.05 3.44 -12.99 1.67z"/>
  <path d="M204.18 263.72 l0 -7.87 6.79 0 c7.43 0 9.20 0.49 11.12 3.05 1.33 1.82 1.62 6.45 0.64 8.91 -1.38 3.25 -2.95 3.79 -11.27 3.79 l-7.28 0 0 -7.87z"/>
  <path d="M204.18 246.35 c0 -7.97 -0.05 -7.87 5.51 -8.17 6.10 -0.25 9.15 0.30 10.82 1.92 1.23 1.28 1.38 1.72 1.38 4.92 0 6.59 -1.23 7.48 -10.92 7.77 l-6.79 0.20 0 -6.64z"/>
  <path d="M316.36 263.72 l0 -7.87 7.13 0 c9.99 0 11.91 1.03 12.40 6.84 0.30 3.69 -0.64 6.35 -2.76 7.77 -1.57 1.03 -2.16 1.13 -9.20 1.13 l-7.58 0 0 -7.87z"/>
  <path d="M316.56 252.25 c-0.10 -0.34 -0.15 -3.64 -0.10 -7.28 l0.15 -6.59 6.15 -0.15 c10.14 -0.25 11.81 0.79 11.81 7.38 0 3.74 -0.10 3.99 -1.48 5.31 -1.82 1.72 -3.20 1.97 -10.43 1.97 -4.33 0 -5.90 -0.15 -6.10 -0.64z"/>
  <path d="M267.16 156.95 c-0.84 -0.84 -0.98 -1.62 -0.98 -5.31 0 -6.89 -0.89 -6.49 14.07 -6.49 11.51 0 12.69 0.10 14.46 0.98 1.03 0.54 2.31 1.57 2.90 2.36 1.23 1.72 2.16 5.31 1.92 7.53 l-0.15 1.67 -15.60 0.15 c-15.10 0.10 -15.65 0.10 -16.63 -0.89z"/>
  <path d="M329.74 121.43 c-0.34 -0.34 -0.59 -1.92 -0.59 -3.69 0 -2.76 0.15 -3.30 1.28 -4.33 0.74 -0.69 1.62 -1.23 2.07 -1.23 0.49 0 0.59 -0.25 0.30 -0.84 -0.20 -0.49 -0.49 -2.26 -0.59 -3.94 -0.15 -2.76 -0.05 -3.20 1.08 -4.33 1.03 -1.03 1.67 -1.23 3.99 -1.23 3.59 0 5.17 1.38 5.17 4.53 l0 2.12 2.21 -0.15 c2.07 -0.20 2.21 -0.30 2.21 -1.62 0 -1.38 0.10 -1.43 2.16 -1.43 1.87 0 2.36 0.25 3.69 1.72 2.21 2.56 2.12 4.87 -0.34 7.28 -1.48 1.43 -2.26 1.82 -3.69 1.82 -1.67 0 -1.82 -0.10 -1.82 -1.48 0 -1.23 -0.20 -1.48 -1.23 -1.48 -1.23 0 -1.23 0.05 -0.49 1.48 0.98 1.87 0.98 5.61 -0.05 6.59 -0.64 0.64 -2.07 0.79 -7.77 0.79 -4.77 0 -7.18 -0.20 -7.58 -0.59z"/>
  <path d="M289.55 120.10 c-2.85 -1.72 -4.18 -4.33 -4.18 -8.12 0 -3.20 0.84 -5.36 2.71 -7.18 1.72 -1.67 1.92 -1.72 6.05 -1.87 3.84 -0.15 4.48 -0.05 6 0.98 2.46 1.67 3.44 3.89 3.44 8.02 0 4.03 -0.98 6.30 -3.44 8.02 -2.16 1.48 -8.31 1.57 -10.58 0.15z"/>
 </g>
 <g fill="#0b294c">
  <path d="M221.16 302.49 c-0.10 -0.34 -0.98 -3.25 -1.92 -6.40 l-1.67 -5.81 1.18 0 c0.93 0 1.23 0.39 1.67 2.12 1.43 5.41 2.16 7.43 2.36 6.74 0.15 -0.39 0.74 -2.51 1.33 -4.67 0.98 -3.49 1.23 -3.94 2.21 -3.94 1.03 0 1.28 0.44 2.26 4.13 0.64 2.26 1.23 4.38 1.33 4.67 0.30 0.69 0.54 0.05 1.87 -4.97 0.84 -3.30 1.23 -4.08 1.97 -4.08 0.49 0 0.93 0.15 0.93 0.39 0.05 0.20 -0.69 3.05 -1.57 6.35 -1.53 5.71 -1.67 6.05 -2.85 6.05 -1.08 0 -1.33 -0.39 -2.21 -3.30 -1.38 -4.58 -2.26 -4.62 -3.39 -0.15 -0.79 3.05 -1.03 3.44 -2.12 3.44 -0.64 0 -1.28 -0.30 -1.38 -0.59z"/>
  <path d="M236.16 300.52 c3.69 -9.79 3.74 -9.99 5.07 -10.14 1.08 -0.15 1.33 0.15 2.07 2.46 0.49 1.43 1.53 4.23 2.26 6.20 0.79 1.97 1.43 3.69 1.43 3.79 0 0.15 -0.49 0.25 -1.13 0.25 -0.79 0 -1.28 -0.44 -1.67 -1.48 -0.49 -1.33 -0.79 -1.48 -2.56 -1.48 -1.97 0 -3.99 1.23 -3.99 2.46 0 0.30 -0.54 0.49 -1.23 0.49 l-1.23 0 0.98 -2.56z m6.89 -2.31 c0 -0.84 -1.48 -3.99 -1.92 -3.99 -0.49 0 -2.02 3.79 -1.62 4.13 0.44 0.49 3.54 0.34 3.54 -0.15z"/>
  <path d="M248.95 296.68 l0 -6.40 3.10 0 c2.46 0 3.35 0.20 4.18 0.98 1.48 1.38 1.48 4.23 0 5.76 l-1.08 1.18 1.33 2.46 1.38 2.41 -1.23 0 c-0.98 0 -1.48 -0.44 -2.21 -1.87 -1.92 -3.74 -3.49 -3.89 -3.49 -0.30 0 1.82 -0.15 2.16 -0.98 2.16 -0.93 0 -0.98 -0.34 -0.98 -6.40z m6.10 -1.57 c0.84 -1.33 -0.25 -2.56 -2.36 -2.76 l-1.77 -0.15 0 2.02 0 2.02 1.77 -0.15 c1.08 -0.10 2.07 -0.49 2.36 -0.98z"/>
  <path d="M259.78 296.73 l0 -6.45 3.20 0 c5.56 0 7.97 2.26 7.48 7.04 -0.15 1.87 -0.54 2.76 -1.77 3.94 -1.38 1.43 -1.87 1.57 -5.22 1.72 l-3.69 0.20 0 -6.45z m7.43 2.95 c2.90 -2.90 1.08 -7.38 -3.05 -7.43 l-1.77 0 -0.34 3.94 c-0.20 2.16 -0.25 4.13 -0.05 4.43 0.15 0.25 1.08 0.49 2.02 0.49 1.28 0 2.16 -0.39 3.20 -1.43z"/>
  <path d="M278.72 301.85 c-1.62 -1.57 -1.62 -3.69 0 -5.31 1.08 -1.08 1.18 -1.38 0.69 -2.51 -1.18 -2.61 1.97 -5.02 4.82 -3.64 1.77 0.84 2.26 3.35 0.69 3.35 -0.59 0 -1.03 -0.34 -1.03 -0.74 0 -0.98 -1.92 -0.93 -2.31 0.05 -0.20 0.54 0.49 1.53 2.02 3.05 l2.26 2.31 0.79 -1.13 c0.79 -1.18 2.16 -1.48 2.16 -0.44 -0.05 0.30 -0.34 1.13 -0.69 1.82 -0.64 1.08 -0.59 1.33 0.54 2.71 1.13 1.33 1.18 1.48 0.39 1.62 -0.49 0.10 -1.43 -0.10 -2.07 -0.44 -0.93 -0.49 -1.38 -0.49 -2.12 -0.05 -1.72 1.03 -4.82 0.74 -6.15 -0.64z m5.46 -1.28 c0.34 -0.59 -2.16 -3.39 -3.10 -3.39 -1.03 0 -1.72 1.82 -1.13 2.95 0.59 1.08 3.59 1.43 4.23 0.44z"/>
  <path d="M297.02 302.73 c-0.20 -0.15 -0.34 -3.05 -0.34 -6.40 l0 -6.05 3.39 0 c3.10 0 3.49 0.10 4.43 1.28 1.23 1.57 1.28 2.51 0.20 3.74 -0.74 0.84 -0.74 0.98 0.25 1.92 0.59 0.54 1.08 1.33 1.08 1.72 0 1.03 -0.98 2.76 -1.92 3.49 -0.84 0.64 -6.54 0.89 -7.08 0.30z m5.95 -2.07 c0.39 -0.20 0.59 -0.93 0.49 -1.57 -0.15 -1.03 -0.39 -1.18 -2.12 -1.18 -1.87 0 -1.97 0.10 -2.12 1.62 -0.15 1.48 -0.10 1.57 1.48 1.57 0.89 0 1.92 -0.20 2.26 -0.44z m-0.20 -5.76 c0.44 -0.39 0.79 -0.93 0.79 -1.13 0 -0.84 -1.28 -1.53 -2.80 -1.53 -1.53 0 -1.62 0.10 -1.62 1.72 0 1.57 0.10 1.72 1.43 1.72 0.79 0 1.82 -0.34 2.21 -0.79z"/>
  <path d="M308 296.68 l0 -6.40 3.69 0 c3.35 0 3.69 0.10 3.69 0.98 0 0.84 -0.34 0.98 -2.46 0.98 l-2.46 0 0 1.72 c0 1.72 0 1.72 2.21 1.72 1.87 0 2.21 0.15 2.21 0.93 0 0.79 -0.39 0.98 -2.07 1.13 -1.97 0.15 -2.12 0.25 -2.26 1.77 l-0.15 1.57 2.46 0 c2.16 0 2.51 0.15 2.51 0.98 0 0.89 -0.34 0.98 -3.69 0.98 l-3.69 0 0 -6.40z"/>
  <path d="M317.84 296.68 l0 -6.49 3.74 0.20 c3.49 0.15 3.84 0.30 5.17 1.72 1.72 1.97 2.26 4.53 1.38 6.89 -1.03 2.71 -2.85 3.79 -6.84 3.99 l-3.44 0.20 0 -6.49z m7.48 2.95 c0.54 -0.69 0.89 -1.92 0.89 -3.20 0 -2.71 -1.62 -4.18 -4.48 -4.18 l-1.92 0 0 4.48 0 4.53 2.31 -0.30 c1.57 -0.15 2.61 -0.59 3.20 -1.33z"/>
  <path d="M335.65 296.83 c0.15 -6.30 0.15 -6.30 1.33 -6.30 1.03 0 1.43 0.64 3.15 4.58 1.08 2.46 2.12 4.53 2.31 4.53 0.15 0 1.03 -1.82 1.92 -4.03 1.92 -4.77 2.31 -5.31 3.54 -5.31 0.89 0 0.93 0.44 0.93 6.40 0 6.05 -0.05 6.40 -0.98 6.40 -0.89 0 -0.98 -0.34 -0.98 -3.25 0 -4.03 -0.64 -3.99 -2.36 0.20 -1.62 3.94 -2.71 3.99 -4.23 0.25 -1.38 -3.44 -2.26 -3.39 -2.26 0.10 0 2.56 -0.05 2.71 -1.23 2.71 l-1.28 0 0.15 -6.25z"/>
  <path d="M352.77 296.83 c2.02 -5.51 2.46 -6.30 3.49 -6.45 1.08 -0.10 1.33 0.34 3.39 5.85 1.23 3.30 2.31 6.20 2.36 6.45 0.10 0.20 -0.34 0.39 -1.03 0.39 -0.89 0 -1.33 -0.34 -1.53 -1.18 -0.34 -1.48 -1.13 -1.77 -3.74 -1.43 -1.53 0.20 -2.16 0.59 -2.56 1.43 -0.34 0.74 -0.98 1.18 -1.62 1.18 -1.08 0 -1.03 -0.15 1.23 -6.25z m5.02 1.53 c0.49 -0.49 -0.74 -3.64 -1.43 -3.64 -0.69 0 -1.62 1.92 -1.62 3.25 0 0.69 2.46 1.03 3.05 0.39z"/>
  <path d="M363.59 296.73 c0 -6.40 0 -6.45 1.13 -6.45 0.89 0 1.72 0.93 3.84 4.18 1.43 2.31 2.80 4.18 3 4.18 0.25 0 0.39 -1.87 0.39 -4.18 0 -3.84 0.10 -4.18 0.98 -4.18 0.93 0 0.98 0.34 0.98 6.40 0 6.30 0 6.40 -1.08 6.40 -0.84 -0.05 -1.67 -0.89 -3.25 -3.44 -2.76 -4.43 -3.44 -4.43 -3.64 -0.10 -0.15 3 -0.25 3.30 -1.23 3.44 -1.13 0.15 -1.13 0.15 -1.13 -6.25z"/>
  <path d="M375.89 302.49 c0 -0.34 0.98 -3.20 2.16 -6.30 1.87 -4.87 2.36 -5.66 3.35 -5.81 1.08 -0.15 1.38 0.34 3.49 5.95 1.28 3.39 2.31 6.30 2.31 6.45 0 0.15 -0.44 0.30 -0.98 0.30 -0.59 0 -1.28 -0.59 -1.72 -1.53 -0.74 -1.38 -0.93 -1.48 -3.10 -1.33 -1.97 0.15 -2.41 0.34 -2.95 1.53 -0.64 1.33 -2.56 1.92 -2.56 0.74z m7.38 -4.18 c0 -0.20 -0.25 -1.08 -0.59 -1.97 -0.69 -1.92 -1.72 -2.12 -2.36 -0.34 -0.84 2.16 -0.64 2.66 1.23 2.66 0.93 0 1.72 -0.15 1.72 -0.34z"/>
  <path d="M391.69 302.44 c-2.16 -1.08 -3.25 -3.10 -3.25 -6 0 -2.12 0.25 -2.90 1.23 -3.94 2.71 -2.95 6.64 -3.30 9.10 -0.89 0.69 0.69 1.23 1.48 1.23 1.67 0 0.74 -2.31 0.49 -2.95 -0.30 -0.34 -0.44 -1.43 -0.74 -2.51 -0.74 -2.66 0 -3.89 1.33 -3.89 4.18 0 4.28 3.94 6.20 6.79 3.35 l1.33 -1.38 -2.21 -0.25 c-1.62 -0.20 -2.26 -0.49 -2.36 -1.13 -0.15 -0.79 0.15 -0.89 3.20 -0.74 l3.35 0.15 -0.20 1.48 c-0.25 2.12 -0.89 3.10 -2.66 4.18 -1.77 1.13 -4.48 1.28 -6.20 0.34z"/>
  <path d="M402.76 299.14 c-0.20 -2.21 -0.20 -5.07 0 -6.45 l0.34 -2.41 3.35 0 c3.05 0 3.39 0.10 3.39 0.98 0 0.84 -0.34 0.98 -2.46 0.98 l-2.46 0 0 1.72 0 1.72 2.51 0 c2.12 0 2.46 0.15 2.31 0.89 -0.10 0.64 -0.74 0.89 -2.51 0.98 -2.26 0.15 -2.31 0.20 -2.31 1.87 l0 1.67 2.76 0 c2.31 0 2.71 0.15 2.56 0.89 -0.15 0.69 -0.79 0.89 -3.64 0.98 l-3.49 0.15 -0.34 -3.99z"/>
  <path d="M412.30 296.68 l0 -6.45 1.33 0.15 c1.13 0.15 1.53 0.74 3.25 4.72 1.08 2.46 2.12 4.53 2.26 4.53 0.20 0 1.23 -2.12 2.26 -4.67 1.62 -4.03 2.02 -4.67 3.05 -4.67 1.13 0 1.13 0 1.13 6.40 0 6.05 -0.05 6.40 -0.98 6.40 -0.84 0 -0.98 -0.34 -0.98 -2.46 0 -3.35 -1.18 -3.35 -2.61 0 -1.38 3.10 -2.51 3.25 -3.59 0.49 -1.03 -2.51 -2.31 -2.51 -2.66 0 -0.20 1.33 -0.49 1.77 -1.33 1.87 -1.13 0.15 -1.13 0.15 -1.13 -6.30z"/>
  <path d="M428.44 298.06 c-0.25 -8.12 -0.39 -7.77 3.59 -7.77 3.05 0 3.39 0.10 3.39 0.98 0 0.84 -0.34 0.98 -2.46 0.98 l-2.46 0 0 1.72 c0 1.72 0 1.72 2.21 1.72 1.87 0 2.21 0.15 2.21 0.93 0 0.79 -0.39 0.98 -2.07 1.13 -1.97 0.15 -2.12 0.25 -2.26 1.77 l-0.15 1.57 2.46 0 c2.16 0 2.51 0.15 2.51 0.98 0 0.89 -0.34 0.98 -3.39 0.98 l-3.44 0 -0.15 -5.02z"/>
  <path d="M437.89 296.68 c0 -6.30 0 -6.40 1.13 -6.40 0.84 0 1.67 0.98 3.79 4.33 l2.71 4.28 0.25 -4.18 c0.25 -3.89 0.34 -4.18 1.38 -4.33 1.08 -0.15 1.08 -0.15 1.08 6.25 0 6.40 0 6.45 -1.13 6.45 -0.89 0 -1.62 -0.79 -3.20 -3.25 -2.71 -4.23 -3.74 -4.18 -3.94 0.20 -0.15 2.66 -0.30 3.05 -1.08 3.05 -0.93 0 -0.98 -0.39 -0.98 -6.40z"/>
  <path d="M453.63 297.66 l0 -5.41 -1.72 0 c-1.38 0 -1.72 -0.20 -1.72 -0.98 0 -0.93 0.34 -0.98 4.43 -0.98 4.03 0 4.43 0.10 4.43 0.93 0 0.74 -0.39 1.03 -1.57 1.13 l-1.62 0.15 -0.15 5.31 c-0.10 4.87 -0.20 5.26 -1.08 5.26 -0.93 0 -0.98 -0.34 -0.98 -5.41z"/>
  <path d="M244.23 275.97 c-3.89 -1.23 -7.53 -4.38 -9.40 -8.22 -1.23 -2.51 -1.38 -3.30 -1.38 -7.97 0 -4.53 0.15 -5.51 1.28 -7.87 1.72 -3.69 3.89 -6.05 6.94 -7.58 2.26 -1.13 3.15 -1.28 7.82 -1.28 4.77 0 5.46 0.10 7.87 1.38 4.82 2.51 7.63 7.63 7.92 14.37 l0.15 3.20 -12.40 0.15 c-12.15 0.10 -12.45 0.15 -12.45 1.13 0 2.26 2.90 5.81 5.56 6.79 3.54 1.38 8.36 0.20 10.33 -2.51 0.98 -1.28 1.23 -1.38 4.62 -1.38 1.97 0 3.59 0.20 3.59 0.39 0 0.20 -0.74 1.57 -1.57 3.05 -3.84 6.40 -11.12 8.86 -18.89 6.35z m13.78 -20.71 c-0.69 -2.26 -1.72 -3.84 -3.30 -5.02 -1.43 -1.08 -2.16 -1.28 -4.97 -1.28 -1.97 0 -3.89 0.30 -4.72 0.74 -1.72 0.89 -3.74 3.44 -4.18 5.31 l-0.34 1.33 8.95 0 8.91 0 -0.34 -1.08z"/>
  <path d="M280.98 276.21 c-8.02 -2.16 -12.74 -11.02 -10.92 -20.47 1.57 -8.07 7.43 -13.19 15.06 -13.19 3.59 0 7.63 1.38 9.05 3.10 0.34 0.49 0.84 0.84 1.08 0.84 0.25 0 0.44 -3.44 0.44 -7.63 l0 -7.68 3.59 0.15 3.54 0.15 0 22.39 0 22.39 -3.44 0 -3.44 0 -0.15 -1.57 c-0.10 -0.89 -0.25 -1.62 -0.39 -1.62 -0.10 0 -1.08 0.59 -2.12 1.28 -2.26 1.48 -5.95 2.66 -8.12 2.61 -0.84 0 -2.71 -0.34 -4.18 -0.74z m9.05 -6.54 c4.08 -1.82 5.85 -5.36 5.56 -11.07 -0.15 -2.95 -0.39 -3.94 -1.53 -5.56 -2.36 -3.39 -6.25 -4.97 -9.99 -4.03 -4.53 1.13 -7.08 5.17 -7.08 10.97 0 4.67 1.92 7.97 5.66 9.69 2.51 1.18 4.87 1.18 7.38 0z"/>
  <path d="M357.49 276.16 c-8.27 -2.51 -12.99 -11.02 -11.12 -20.07 1.48 -7.33 6.54 -12.35 13.48 -13.43 7.33 -1.18 14.61 2.41 17.52 8.61 4.62 9.89 0.39 21.55 -9.05 24.65 -3.79 1.23 -7.38 1.33 -10.82 0.25z m8.81 -6.49 c3.74 -1.67 5.66 -5.07 5.66 -10.09 0 -5.56 -2.76 -9.59 -7.28 -10.58 -6.30 -1.33 -11.41 3.39 -11.41 10.63 0 5.02 1.82 8.27 5.66 10.04 2.51 1.18 4.87 1.18 7.38 0z"/>
  <path d="M394.98 276.36 c-3.20 -0.93 -6 -2.90 -8.02 -5.66 -2.46 -3.35 -3.39 -6.49 -3.39 -11.46 0.05 -3.69 0.25 -4.62 1.53 -7.38 2.71 -5.66 7.08 -8.86 12.84 -9.20 3.89 -0.25 7.04 0.59 9.74 2.71 l2.16 1.62 0 -1.97 0 -1.97 3.44 0 3.44 0 0 16.73 0 16.73 -3.44 0 -3.44 0 0 -1.72 c0 -1.87 -0.89 -2.31 -2.02 -0.93 -2.02 2.46 -8.51 3.74 -12.84 2.51z m8.61 -6.45 c3.44 -1.43 5.71 -4.82 6.10 -9.15 0.54 -5.61 -2.26 -10.14 -7.04 -11.61 -6.99 -2.12 -12.94 4.13 -11.81 12.40 0.30 2.46 1.72 5.46 3.10 6.69 2.41 2.21 6.69 2.95 9.64 1.67z"/>
  <path d="M457.07 276.31 c-4.38 -1.18 -8.12 -4.33 -9.84 -8.46 -3.15 -7.28 -1.77 -16.19 3.30 -21.16 2.46 -2.41 5.17 -3.54 9.35 -3.94 3.84 -0.34 6.35 0.25 8.81 2.07 2.80 2.07 2.85 2.07 2.71 -5.36 -0.10 -4.72 0.05 -6.99 0.44 -7.48 0.44 -0.49 1.62 -0.74 3.74 -0.74 l3.15 0 0 22.63 0 22.63 -3.44 0 -3.44 0 0 -1.72 c0 -2.12 -0.69 -2.21 -2.95 -0.30 -1.67 1.38 -5.56 2.56 -8.27 2.46 -0.74 0 -2.31 -0.30 -3.54 -0.64z m8.27 -6.45 c4.77 -2.02 7.18 -7.28 5.95 -12.99 -0.69 -3.30 -2.21 -5.46 -4.87 -6.89 -4.38 -2.41 -9.64 -0.98 -12.15 3.30 -1.82 3.10 -2.12 7.92 -0.69 11.17 1.38 3.10 2.26 4.08 4.72 5.22 2.41 1.13 4.62 1.18 7.04 0.20z"/>
  <path d="M198.28 255.11 l0 -21.45 10.48 0.15 10.43 0.15 2.71 1.48 c4.18 2.26 6.35 6.45 5.66 10.77 -0.49 2.71 -1.28 4.18 -3.44 6.30 l-1.77 1.72 1.92 1.28 c3.05 2.12 4.28 4.82 4.28 9.20 0 5.26 -1.97 8.36 -6.64 10.53 -1.97 0.89 -3.35 1.03 -12.89 1.18 l-10.73 0.20 0 -21.50z m20.57 14.02 c3.10 -1.92 3.79 -6.15 1.48 -9.10 -1.67 -2.12 -3.74 -2.71 -9.50 -2.71 l-5.17 0 0 6.40 0 6.40 5.81 0 c4.92 0 6 -0.15 7.38 -0.98z m-1.23 -18.70 c1.77 -0.89 2.80 -2.85 2.80 -5.41 0 -4.03 -3.99 -5.95 -10.82 -5.31 -3.74 0.39 -3.94 0.69 -3.94 6.64 l0 5.17 5.31 -0.20 c3 -0.15 5.85 -0.49 6.64 -0.89z"/>
  <path d="M310.95 255.15 l0 -21.45 9.59 0 c10.38 0 12.74 0.39 15.94 2.80 0.89 0.69 2.16 2.41 2.80 3.79 2.07 4.43 1.38 8.56 -2.07 11.86 l-2.16 2.12 1.77 1.08 c5.41 3.39 6.25 12.55 1.57 17.22 -3.35 3.39 -4.43 3.64 -16.48 3.84 l-10.97 0.20 0 -21.45z m20.71 13.83 c1.92 -1.28 3 -3.79 2.61 -6.20 -0.69 -4.28 -3 -5.46 -10.77 -5.46 l-5.66 0 0 6.40 0 6.40 6.10 0 c5.51 0 6.20 -0.10 7.72 -1.13z m-3.05 -17.86 c0.84 -0.20 2.21 -0.93 3 -1.67 1.28 -1.18 1.48 -1.77 1.48 -3.84 0 -4.72 -2.51 -6.15 -10.33 -5.90 l-4.67 0.15 -0.15 5.12 c-0.05 2.85 0 5.46 0.10 5.81 0.30 0.69 7.63 0.93 10.58 0.34z"/>
  <path d="M425.04 266.81 c0 -5.36 -0.15 -12.69 -0.25 -16.24 -0.20 -7.53 -0.20 -7.53 4.43 -7.53 l2.76 0 0 2.02 0 2.02 1.53 -1.28 c2.21 -1.87 3.84 -2.61 6.49 -3 l2.36 -0.34 -0.15 3.59 -0.15 3.64 -1.72 0.15 c-0.93 0.10 -1.92 0.39 -2.21 0.64 -0.25 0.25 -0.93 0.44 -1.53 0.44 -1.38 0 -3.44 2.41 -4.13 4.82 -0.25 0.98 -0.49 6.10 -0.49 11.32 l0 9.45 -3.44 0 -3.44 0 -0.05 -9.69z"/>
  <path d="M252.25 214.07 c-2.12 -0.44 -3.99 -1.72 -5.46 -3.69 -0.98 -1.28 -1.03 -2.12 -1.18 -14.37 l-0.15 -13.04 3.35 0.15 3.35 0.15 0.25 11.22 c0.30 12.79 0.25 12.64 4.38 12.64 3.59 0 3.69 -0.20 4.03 -6.64 0.25 -5.26 0.34 -5.81 1.72 -7.72 0.79 -1.13 2.41 -2.56 3.59 -3.20 l2.21 -1.13 70.95 0.10 70.95 0.15 1.92 1.53 c3.15 2.56 3.89 4.43 4.23 10.43 0.20 4.23 0.39 5.31 1.13 5.85 1.03 0.79 4.77 0.84 6.15 0.15 0.89 -0.49 0.93 -1.38 0.93 -32.96 0 -36.61 0.30 -33.95 -3.94 -33.95 -2.36 0 -3.94 0.84 -3.94 2.12 -0.05 0.34 -0.10 7.04 -0.15 14.86 -0.10 12.60 -0.25 14.51 -1.03 16.38 -1.13 2.66 -4.18 5.26 -6.94 5.95 -2.31 0.59 -91.27 0.79 -91.27 0.25 0 -0.20 0.39 -1.03 0.93 -1.87 0.49 -0.84 1.18 -2.36 1.53 -3.35 l0.59 -1.87 43.05 0 43.05 0 1.48 -1.48 c1.43 -1.43 1.48 -1.67 1.28 -5.02 -0.15 -3.05 -0.34 -3.59 -1.53 -4.62 l-1.38 -1.18 -42.80 0 c-46.94 0 -44.23 -0.15 -46.89 2.95 -1.28 1.53 -1.77 2.90 -2.76 7.97 -0.69 3.54 -2.71 6.35 -5.56 7.72 -2.21 1.08 -2.41 1.08 -27.01 0.93 l-24.75 -0.15 -2.46 -1.23 c-2.90 -1.43 -5.71 -4.13 -7.23 -6.99 -1.13 -2.12 -1.13 -2.16 -1.28 -26.08 -0.15 -22.93 -0.10 -24.06 0.84 -25.83 2.02 -3.94 4.33 -5.02 10.73 -5.07 4.18 0 5.76 0.49 7.92 2.61 2.21 2.12 2.56 3.84 2.56 13.14 0 4.48 0.20 8.36 0.39 8.71 0.25 0.39 3.94 0.64 12.89 0.74 12.50 0.15 12.55 0.15 15.01 1.48 3.05 1.57 6.35 5.07 7.77 8.17 0.79 1.72 1.03 3.30 1.08 6.10 0 4.08 -0.59 5.41 -3.39 7.48 -1.28 0.98 -2.12 1.03 -16.68 1.18 -16.48 0.15 -17.91 0 -20.57 -2.21 -3.25 -2.76 -3.39 -3.44 -3.39 -21.85 0 -12.45 -0.15 -16.68 -0.59 -17.27 -1.48 -1.82 -7.04 -1.23 -7.58 0.84 -0.15 0.54 -0.20 10.68 -0.10 22.48 0.15 20.91 0.20 21.50 1.18 22.88 0.54 0.74 1.77 1.87 2.66 2.51 l1.62 1.08 23.52 0 23.52 0 1.03 -1.08 c0.54 -0.59 0.98 -1.18 0.98 -1.33 0 -0.15 0.34 -1.77 0.69 -3.54 1.33 -6.25 4.23 -10.18 9.10 -12.45 2.26 -1.03 2.56 -1.03 47.43 -1.03 l45.12 0 0 -5.90 c0 -3.25 0.25 -6.74 0.49 -7.72 0.64 -2.26 2.56 -4.58 4.62 -5.66 2.16 -1.13 10.28 -1.18 12.40 0 1.92 0.98 3.99 3.44 4.53 5.17 0.20 0.74 0.34 16.63 0.34 35.28 0 32.42 -0.05 34.05 -0.93 35.82 -0.54 1.08 -1.82 2.46 -2.85 3.20 -1.77 1.13 -2.36 1.28 -7.18 1.28 -5.66 0 -7.18 -0.44 -9.35 -2.76 -1.57 -1.72 -2.07 -3.89 -2.07 -9.15 0 -4.18 -0.10 -4.67 -1.23 -5.76 l-1.18 -1.23 -67.90 0 c-41.33 0 -68.34 0.20 -69.08 0.44 -1.57 0.64 -1.77 1.28 -2.07 7.33 -0.39 8.46 -2.26 10.68 -9.59 11.12 -2.31 0.15 -5.02 0.05 -6.05 -0.15z m45.66 -58.11 c0.44 -0.69 -0.69 -4.48 -1.82 -6.05 -0.54 -0.74 -1.82 -1.77 -2.85 -2.31 -1.77 -0.89 -2.95 -0.98 -12.99 -0.98 -10.87 0 -11.07 0 -11.81 1.08 -1.18 1.67 -1.03 6.54 0.20 7.77 0.93 0.93 1.62 0.98 14.96 0.98 8.61 0 14.12 -0.20 14.32 -0.49z"/>
  <path d="M387.45 123.99 c-1.82 -0.74 -12.05 -11.56 -12.05 -12.74 0 -1.48 1.23 -3.79 2.21 -4.18 1.92 -0.74 3 -0.15 6.94 3.74 l4.18 4.03 6.20 -6.59 c11.22 -11.91 12.64 -13.28 14.02 -13.28 2.02 0 3.84 1.77 3.84 3.74 0 1.87 0.15 1.67 -12.25 14.96 -10.87 11.61 -10.58 11.41 -13.09 10.33z"/>
 </g>
 <g fill="#3c9f8d">
  <path d="M326.84 127.18 c-0.84 -0.34 -1.77 -1.13 -2.12 -1.67 -0.34 -0.74 -0.49 -5.12 -0.39 -14.07 0.15 -11.71 0.25 -13.09 1.03 -13.87 0.79 -0.79 2.26 -0.89 15.74 -1.03 10.53 -0.10 15.15 0 15.89 0.44 1.62 0.84 2.16 2.56 2.16 7.08 l0 4.18 5.61 0 c3.25 0 5.76 0.20 5.95 0.49 0.15 0.25 0.34 1.72 0.39 3.25 0.15 3.74 -0.49 4.13 -6.30 4.13 -2.80 0 -4.67 0.20 -5.07 0.59 -0.34 0.34 -0.59 2.02 -0.59 4.18 0 3.30 -0.10 3.69 -1.53 5.31 l-1.53 1.72 -13.87 0 c-10.63 -0.05 -14.17 -0.20 -15.40 -0.74z m16.78 -7.43 c1.03 -1.03 0.98 -2.07 -0.20 -4.03 -1.18 -1.92 -2.66 -2.56 -5.90 -2.56 -4.28 0 -6.89 1.72 -6.89 4.58 0 2.56 0.59 2.80 6.69 2.80 4.38 0 5.71 -0.15 6.30 -0.79z m7.28 -6.94 c1.03 -0.98 1.87 -1.97 1.87 -2.21 0 -0.20 -0.69 -1.13 -1.53 -2.12 -1.87 -2.12 -3.05 -2.26 -2.80 -0.34 0.15 1.23 0 1.33 -2.07 1.57 -1.57 0.20 -2.26 0.49 -2.36 1.13 -0.15 0.69 0.20 0.84 2.31 0.84 l2.51 0 -0.30 1.48 c-0.39 1.92 0.10 1.87 2.36 -0.34z m-11.17 -2.85 c0.79 -0.74 1.23 -1.77 1.23 -2.71 0 -1.87 -1.92 -3.94 -3.69 -3.94 -1.77 0 -3.69 2.07 -3.69 3.94 0 1.87 1.92 3.94 3.69 3.94 0.69 0 1.82 -0.54 2.46 -1.23z"/>
 </g>
 <g fill="#67afdb">
  <path d="M414.27 298.11 c0 -2.26 0.98 -2.61 1.77 -0.54 0.49 1.23 0.39 1.43 -0.64 1.92 -1.08 0.54 -1.13 0.44 -1.13 -1.38z"/>
  <path d="M402.61 295.70 c0 -1.48 0.10 -2.12 0.20 -1.33 0.10 0.74 0.10 1.92 0 2.71 -0.10 0.74 -0.20 0.10 -0.20 -1.38z"/>
  <path d="M261.89 294.71 c0 -1.23 0.10 -1.72 0.20 -1.08 0.10 0.59 0.10 1.57 0 2.21 -0.10 0.59 -0.20 0.10 -0.20 -1.13z"/>
  <path d="M441.97 245.76 c0 -1.62 0.10 -2.21 0.20 -1.33 0.10 0.89 0.10 2.21 0 2.95 -0.10 0.74 -0.20 0 -0.20 -1.62z"/>
  <path d="M267.80 201.48 c0 -1.62 0.10 -2.21 0.20 -1.33 0.10 0.89 0.10 2.21 0 2.95 -0.10 0.74 -0.20 0 -0.20 -1.62z"/>
  <path d="M416.43 155.47 c0 -4.72 0.10 -6.69 0.15 -4.28 0.10 2.36 0.10 6.20 0 8.61 -0.05 2.36 -0.15 0.39 -0.15 -4.33z"/>
  <path d="M288.81 125.90 c-2.85 -1.28 -5.66 -3.99 -7.28 -7.08 -1.13 -2.12 -1.33 -3.05 -1.33 -6.89 0 -3.74 0.20 -4.77 1.23 -6.84 1.62 -3.15 5.31 -6.40 8.46 -7.48 3.25 -1.08 8.71 -0.74 11.46 0.69 2.71 1.33 5.81 4.82 6.89 7.63 l0.84 2.26 5.51 0.15 5.46 0.15 0.15 3.59 0.15 3.54 -2.66 0 c-1.48 0 -4.03 0.15 -5.71 0.30 l-3 0.34 -1.03 2.26 c-1.18 2.71 -4.97 6.79 -7.18 7.72 -2.51 1.08 -9.25 0.89 -11.96 -0.34z m9.84 -7.43 c4.53 -3.15 4.53 -10.04 0 -13.09 -1.43 -0.98 -2.21 -1.13 -4.58 -0.98 -2.41 0.20 -3.05 0.44 -4.53 1.87 -5.12 4.97 -1.82 13.28 5.22 13.28 1.53 0 2.80 -0.34 3.89 -1.08z"/>
 </g>
</svg>